# xmcd CD database file
#
# Track frame offsets:
#	150
#	28517
#	62330
#	101310
#	136117
#	149410
#	184392
#	224772
#
# Disc length: 3462 seconds
#
# Revision: 0
# Processed by: cddbd v1.5PL3 Copyright (c) Steve Scherf et al.
# Submitted via: CDex 1.51
#
DISCID=720d8408
DTITLE=Vital Information - Live from Mars
DYEAR=1900
DGENRE=Jazz
TTITLE0=Mr. TC
TTITLE1=Swamp Stomp
TTITLE2=Cranial Jam
TTITLE3=Listen Up
TTITLE4=Drum Improve
TTITLE5=Happy House
TTITLE6=Soul Principle
TTITLE7=Over and Out
EXTD=
EXTT0=
EXTT1=
EXTT2=
EXTT3=
EXTT4=
EXTT5=
EXTT6=
EXTT7=
PLAYORDER=
